<svg xmlns="http://www.w3.org/2000/svg" width="836.237" height="738.577" viewBox="89.315 107.828 836.237 738.577"><defs><clipPath id="a"><path fill="currentColor" d="M865 616.5q-87 116.5-192.5 189t-216 16.5Q346 766 267 689.5T114.5 473Q41 333 182 263t266.5-126Q574 81 725 132.5T914 342q38 158-49 274.5Z"/></clipPath></defs><g clip-path="url(#a)"><path fill="#7f5af0" d="M865 616.5q-87 116.5-192.5 189t-216 16.5Q346 766 267 689.5T114.5 473Q41 333 182 263t266.5-126Q574 81 725 132.5T914 342q38 158-49 274.5Z"/></g></svg>